<mxfile host="app.diagrams.net" modified="2022-01-20T14:00:00.123Z" agent="5.0 (Windows NT 10.0; Win64; x64) AppleWebKit/537.36 (KHTML, like Gecko) Chrome/97.0.4692.71 Safari/537.36 Edg/97.0.1072.62" etag="_gWOiFr2X8tv9sCrd9-6" version="16.0.0" type="github">
  <diagram id="teYEFzdVm0o-y3RG7FN1" name="Page-1">
    <mxGraphModel dx="875" dy="522" grid="1" gridSize="10" guides="1" tooltips="1" connect="1" arrows="1" fold="1" page="1" pageScale="1" pageWidth="1169" pageHeight="1654" background="#F4F1DE" math="0" shadow="1">
      <root>
        <mxCell id="0" />
        <mxCell id="1" parent="0" />
        <mxCell id="Yj491tOJwkLlLhVFuyjV-1" value="&lt;h3&gt;&lt;font style=&quot;font-size: 15px&quot;&gt;git --version&lt;/font&gt;&lt;/h3&gt;" style="rounded=1;whiteSpace=wrap;html=1;fillColor=#F2CC8F;strokeColor=#E07A5F;fontColor=#393C56;strokeWidth=2;shadow=0;glass=0;sketch=0;" vertex="1" parent="1">
          <mxGeometry x="30" y="38" width="120" height="60" as="geometry" />
        </mxCell>
        <mxCell id="Yj491tOJwkLlLhVFuyjV-2" value="&lt;h3&gt;&lt;font style=&quot;font-size: 15px&quot;&gt;git config --global user.name&lt;br&gt;&lt;/font&gt;git config --global user.email&lt;/h3&gt;" style="rounded=1;whiteSpace=wrap;html=1;fillColor=#F2CC8F;strokeColor=#E07A5F;fontColor=#393C56;strokeWidth=2;shadow=0;glass=0;sketch=0;" vertex="1" parent="1">
          <mxGeometry x="187" y="43" width="263" height="60" as="geometry" />
        </mxCell>
        <mxCell id="Yj491tOJwkLlLhVFuyjV-3" value="&lt;h3&gt;&lt;font style=&quot;font-size: 15px&quot;&gt;git --version&lt;/font&gt;&lt;/h3&gt;" style="rounded=1;whiteSpace=wrap;html=1;fillColor=#F2CC8F;strokeColor=#E07A5F;fontColor=#393C56;strokeWidth=2;shadow=0;glass=0;sketch=0;" vertex="1" parent="1">
          <mxGeometry x="513" y="43" width="120" height="60" as="geometry" />
        </mxCell>
        <mxCell id="Yj491tOJwkLlLhVFuyjV-4" value="&lt;h3&gt;&lt;font style=&quot;font-size: 15px&quot;&gt;git --version&lt;/font&gt;&lt;/h3&gt;" style="rounded=1;whiteSpace=wrap;html=1;fillColor=#F2CC8F;strokeColor=#E07A5F;fontColor=#393C56;strokeWidth=2;shadow=0;glass=0;sketch=0;" vertex="1" parent="1">
          <mxGeometry x="523" y="53" width="120" height="60" as="geometry" />
        </mxCell>
        <mxCell id="Yj491tOJwkLlLhVFuyjV-5" value="&lt;h3&gt;&lt;font style=&quot;font-size: 15px&quot;&gt;git --version&lt;/font&gt;&lt;/h3&gt;" style="rounded=1;whiteSpace=wrap;html=1;fillColor=#F2CC8F;strokeColor=#E07A5F;fontColor=#393C56;strokeWidth=2;shadow=0;glass=0;sketch=0;" vertex="1" parent="1">
          <mxGeometry x="533" y="63" width="120" height="60" as="geometry" />
        </mxCell>
        <mxCell id="Yj491tOJwkLlLhVFuyjV-6" value="&lt;h3&gt;&lt;font style=&quot;font-size: 15px&quot;&gt;git --version&lt;/font&gt;&lt;/h3&gt;" style="rounded=1;whiteSpace=wrap;html=1;fillColor=#F2CC8F;strokeColor=#E07A5F;fontColor=#393C56;strokeWidth=2;shadow=0;glass=0;sketch=0;" vertex="1" parent="1">
          <mxGeometry x="543" y="73" width="120" height="60" as="geometry" />
        </mxCell>
        <mxCell id="Yj491tOJwkLlLhVFuyjV-7" value="&lt;h3&gt;&lt;font style=&quot;font-size: 15px&quot;&gt;git --version&lt;/font&gt;&lt;/h3&gt;" style="rounded=1;whiteSpace=wrap;html=1;fillColor=#F2CC8F;strokeColor=#E07A5F;fontColor=#393C56;strokeWidth=2;shadow=0;glass=0;sketch=0;" vertex="1" parent="1">
          <mxGeometry x="553" y="83" width="120" height="60" as="geometry" />
        </mxCell>
        <mxCell id="Yj491tOJwkLlLhVFuyjV-8" value="&lt;h3&gt;&lt;font style=&quot;font-size: 15px&quot;&gt;git --version&lt;/font&gt;&lt;/h3&gt;" style="rounded=1;whiteSpace=wrap;html=1;fillColor=#F2CC8F;strokeColor=#E07A5F;fontColor=#393C56;strokeWidth=2;shadow=0;glass=0;sketch=0;" vertex="1" parent="1">
          <mxGeometry x="563" y="93" width="120" height="60" as="geometry" />
        </mxCell>
        <mxCell id="Yj491tOJwkLlLhVFuyjV-9" value="&lt;h3&gt;&lt;font style=&quot;font-size: 15px&quot;&gt;git --version&lt;/font&gt;&lt;/h3&gt;" style="rounded=1;whiteSpace=wrap;html=1;fillColor=#F2CC8F;strokeColor=#E07A5F;fontColor=#393C56;strokeWidth=2;shadow=0;glass=0;sketch=0;" vertex="1" parent="1">
          <mxGeometry x="573" y="103" width="120" height="60" as="geometry" />
        </mxCell>
        <mxCell id="Yj491tOJwkLlLhVFuyjV-10" value="&lt;h3&gt;&lt;font style=&quot;font-size: 15px&quot;&gt;git --version&lt;/font&gt;&lt;/h3&gt;" style="rounded=1;whiteSpace=wrap;html=1;fillColor=#F2CC8F;strokeColor=#E07A5F;fontColor=#393C56;strokeWidth=2;shadow=0;glass=0;sketch=0;" vertex="1" parent="1">
          <mxGeometry x="583" y="113" width="120" height="60" as="geometry" />
        </mxCell>
        <mxCell id="Yj491tOJwkLlLhVFuyjV-11" value="&lt;h3&gt;&lt;font style=&quot;font-size: 15px&quot;&gt;git --version&lt;/font&gt;&lt;/h3&gt;" style="rounded=1;whiteSpace=wrap;html=1;fillColor=#F2CC8F;strokeColor=#E07A5F;fontColor=#393C56;strokeWidth=2;shadow=0;glass=0;sketch=0;" vertex="1" parent="1">
          <mxGeometry x="593" y="123" width="120" height="60" as="geometry" />
        </mxCell>
        <mxCell id="Yj491tOJwkLlLhVFuyjV-12" value="&lt;h3&gt;&lt;font style=&quot;font-size: 15px&quot;&gt;git --version&lt;/font&gt;&lt;/h3&gt;" style="rounded=1;whiteSpace=wrap;html=1;fillColor=#F2CC8F;strokeColor=#E07A5F;fontColor=#393C56;strokeWidth=2;shadow=0;glass=0;sketch=0;" vertex="1" parent="1">
          <mxGeometry x="603" y="133" width="120" height="60" as="geometry" />
        </mxCell>
        <mxCell id="Yj491tOJwkLlLhVFuyjV-13" value="&lt;h3&gt;&lt;font style=&quot;font-size: 15px&quot;&gt;git --version&lt;/font&gt;&lt;/h3&gt;" style="rounded=1;whiteSpace=wrap;html=1;fillColor=#F2CC8F;strokeColor=#E07A5F;fontColor=#393C56;strokeWidth=2;shadow=0;glass=0;sketch=0;" vertex="1" parent="1">
          <mxGeometry x="613" y="143" width="120" height="60" as="geometry" />
        </mxCell>
        <mxCell id="Yj491tOJwkLlLhVFuyjV-14" value="&lt;h3&gt;&lt;font style=&quot;font-size: 15px&quot;&gt;git --version&lt;/font&gt;&lt;/h3&gt;" style="rounded=1;whiteSpace=wrap;html=1;fillColor=#F2CC8F;strokeColor=#E07A5F;fontColor=#393C56;strokeWidth=2;shadow=0;glass=0;sketch=0;" vertex="1" parent="1">
          <mxGeometry x="623" y="153" width="120" height="60" as="geometry" />
        </mxCell>
        <mxCell id="Yj491tOJwkLlLhVFuyjV-16" value="git init" style="swimlane;fontStyle=1;childLayout=stackLayout;horizontal=1;startSize=30;horizontalStack=0;resizeParent=1;resizeParentMax=0;resizeLast=0;collapsible=1;marginBottom=0;rounded=0;shadow=0;glass=0;sketch=0;fontColor=#393C56;strokeColor=#E07A5F;strokeWidth=2;fillColor=#F2CC8F;fontSize=15;" vertex="1" parent="1">
          <mxGeometry x="40" y="203" width="200" height="60" as="geometry" />
        </mxCell>
        <mxCell id="Yj491tOJwkLlLhVFuyjV-17" value="Create new Git Respository" style="text;strokeColor=none;fillColor=none;align=left;verticalAlign=middle;spacingLeft=4;spacingRight=4;overflow=hidden;points=[[0,0.5],[1,0.5]];portConstraint=eastwest;rotatable=0;rounded=0;shadow=0;glass=0;sketch=0;fontColor=#393C56;fontSize=14;fontStyle=1" vertex="1" parent="Yj491tOJwkLlLhVFuyjV-16">
          <mxGeometry y="30" width="200" height="30" as="geometry" />
        </mxCell>
      </root>
    </mxGraphModel>
  </diagram>
</mxfile>
